<svg width="191.12500610351563px" height="120.00000305175782px" xmlns="http://www.w3.org/2000/svg" viewBox="154.4374969482422 14.999998474121092 191.12500610351563 120.00000305175782" style="background: rgba(0, 0, 0, 0);" preserveAspectRatio="xMidYMid"><filter id="editing-goldstamp"><feFlood flood-color="#797549" result="flood"></feFlood><feMorphology operator="dilate" radius="2" in="SourceGraphic" result="outline"></feMorphology><feComposite operator="in" in="flood" in2="outline" result="outline2"></feComposite><feGaussianBlur stdDeviation="4" in="SourceAlpha" result="blur"></feGaussianBlur><feSpecularLighting surfaceScale="2" specularConstant="0.7" specularExponent="10" lighting-color="#white" in="blur" result="specular"><fePointLight x="200" y="-1000" z="300"></fePointLight></feSpecularLighting><feComposite operator="in" in="specular" in2="SourceGraphic" result="specular2"></feComposite><feComposite in="SourceGraphic" in2="specular2" operator="arithmetic" k1="3" k2="2" k3="1" k4="0" result="specular3"></feComposite><feMerge><feMergeNode in="outline2"></feMergeNode><feMergeNode in="specular3"></feMergeNode></feMerge></filter><g filter="url(#editing-goldstamp)"><g transform="translate(187.23998260498047, 97.46999168395996)"><path d="M3.24-23.34L3.24-23.34L2.94-34.68L2.94-34.68Q2.94-37.38 2.34-38.94L2.34-38.94L2.34-38.94Q1.74-40.50 1.74-40.62L1.74-40.62L1.74-40.62Q1.74-41.94 5.79-42.66L5.79-42.66L5.79-42.66Q9.84-43.38 11.97-43.38L11.97-43.38L11.97-43.38Q14.10-43.38 14.28-42.36L14.28-42.36L14.28-42.36Q18.06-25.50 20.64-18.96L20.64-18.96L20.64-18.96Q20.94-18.24 21.27-18.24L21.27-18.24L21.27-18.24Q21.60-18.24 21.84-18.78L21.84-18.78L21.84-18.78Q25.86-30.12 28.92-41.22L28.92-41.22L28.92-41.22Q29.16-41.94 30.12-42.33L30.12-42.33L30.12-42.33Q31.08-42.72 33.45-43.08L33.45-43.08L33.45-43.08Q35.82-43.44 38.16-43.44L38.16-43.44L38.16-43.44Q40.50-43.44 40.50-42.48L40.50-42.48L40.50-42.48Q40.50-42.42 40.32-41.55L40.32-41.55L40.32-41.55Q40.14-40.68 39.96-39.42L39.96-39.42L39.96-39.42Q39.78-38.16 39.54-36.36L39.54-36.36L39.54-36.36Q39-32.22 38.85-26.85L38.85-26.85L38.85-26.85Q38.70-21.48 38.70-16.08L38.70-16.08L38.82-9.78L38.82-9.78Q38.82-5.46 39.39-3.63L39.39-3.63L39.39-3.63Q39.96-1.80 39.96-1.53L39.96-1.53L39.96-1.53Q39.96-1.26 39.54-0.90L39.54-0.90L39.54-0.90Q37.68 0.60 33.90 0.60L33.90 0.60L33.90 0.60Q31.50 0.60 31.20-1.02L31.20-1.02L31.20-1.02Q31.02-1.86 31.02-3.69L31.02-3.69L31.02-3.69Q31.02-5.52 31.38-14.94L31.38-14.94L31.38-14.94Q31.74-24.36 31.74-28.65L31.74-28.65L31.74-28.65Q31.74-32.94 31.26-32.94L31.26-32.94L31.26-32.94Q31.20-32.94 31.20-32.91L31.20-32.91L31.20-32.91Q31.20-32.88 31.02-32.82L31.02-32.82L31.02-32.82Q30.84-32.76 30.09-30.96L30.09-30.96L30.09-30.96Q29.34-29.16 27.12-22.08L27.12-22.08L27.12-22.08Q24.90-15 23.10-8.85L23.10-8.85L23.10-8.85Q21.30-2.70 21.12-2.22L21.12-2.22L21.12-2.22Q20.46-0.60 18.60-0.60L18.60-0.60L18.60-0.60Q17.70-0.60 17.16-1.26L17.16-1.26L17.16-1.26Q15.24-10.14 10.32-26.64L10.32-26.64L8.64-32.10L8.64-32.10Q8.52-32.40 8.40-32.40L8.40-32.40L8.40-32.40Q8.10-32.40 7.98-31.98L7.98-31.98L7.98-31.98Q7.74-28.08 7.74-16.65L7.74-16.65L7.74-16.65Q7.74-5.22 8.58-2.22L8.58-2.22L8.58-2.22Q8.64-2.10 8.64-1.86L8.64-1.86L8.64-1.86Q8.64-0.60 6.66-0.03L6.66-0.03L6.66-0.03Q4.68 0.54 3.09 0.54L3.09 0.54L3.09 0.54Q1.50 0.54 1.50-0.18L1.50-0.18L1.50-0.18Q1.50-0.24 1.80-1.14L1.80-1.14L1.80-1.14Q2.70-4.20 2.97-10.02L2.97-10.02L2.97-10.02Q3.24-15.84 3.24-23.34ZM64.74-26.70L64.74-26.70L64.74-26.70Q63.66-20.22 63.66-10.20L63.66-10.20L63.66-10.20Q63.66-2.82 64.26-0.48L64.26-0.48L64.50 0.30L64.50 0.30Q64.50 1.08 63.18 1.08L63.18 1.08L63.18 1.08Q58.56 1.08 57.90-1.50L57.90-1.50L57.90-1.50Q57.84-1.80 57.63-1.80L57.63-1.80L57.63-1.80Q57.42-1.80 57.24-1.56L57.24-1.56L57.24-1.56Q55.38 0.90 51.48 0.90L51.48 0.90L51.48 0.90Q49.32 0.90 46.98-0.18L46.98-0.18L46.98-0.18Q45.54-0.84 44.64-2.49L44.64-2.49L44.64-2.49Q43.74-4.14 43.74-6.54L43.74-6.54L44.64-19.68L44.64-19.68Q44.64-23.82 43.80-25.56L43.80-25.56L43.80-25.56Q43.50-26.22 43.50-26.40L43.50-26.40L43.50-26.40Q43.50-26.76 43.80-26.88L43.80-26.88L43.80-26.88Q44.76-27.18 46.26-27.18L46.26-27.18L46.26-27.18Q52.08-27.18 52.08-22.38L52.08-22.38L52.08-22.38Q52.08-20.88 50.85-15.54L50.85-15.54L50.85-15.54Q49.62-10.20 49.62-7.95L49.62-7.95L49.62-7.95Q49.62-5.70 50.61-4.50L50.61-4.50L50.61-4.50Q51.60-3.30 53.37-3.30L53.37-3.30L53.37-3.30Q55.14-3.30 56.16-4.56L56.16-4.56L56.16-4.56Q57.18-5.82 57.36-7.08L57.36-7.08L57.54-8.34L57.54-8.34Q57.78-10.44 57.78-15.72L57.78-15.72L57.78-15.72Q57.78-21 57.45-22.41L57.45-22.41L57.45-22.41Q57.12-23.82 57.12-24.18L57.12-24.18L57.12-24.18Q57.12-25.68 59.52-26.55L59.52-26.55L59.52-26.55Q61.92-27.42 63.84-27.42L63.84-27.42L63.84-27.42Q64.74-27.42 64.74-26.70ZM80.58-19.44L80.58-19.44L80.58-19.44Q80.34-19.20 80.34-18.93L80.34-18.93L80.34-18.93Q80.34-18.66 81.45-18.42L81.45-18.42L81.45-18.42Q82.56-18.18 83.88-17.10L83.88-17.10L83.88-17.10Q85.20-16.02 85.86-14.76L85.86-14.76L85.86-14.76Q87.12-12.30 87.24-10.44L87.24-10.44L87.30-9.66L87.30-9.66Q87.60-2.64 89.88-0.06L89.88-0.06L89.88-0.06Q90.18 0.36 90.18 0.54L90.18 0.54L90.18 0.54Q90.18 1.20 88.50 1.20L88.50 1.20L88.50 1.20Q83.46 1.20 82.08-0.90L82.08-0.90L82.08-0.90Q81.36-1.74 81.36-6.12L81.36-6.12L81.36-7.62L81.36-7.62Q81.36-13.20 79.98-15.36L79.98-15.36L79.98-15.36Q79.26-16.38 78.21-16.38L78.21-16.38L78.21-16.38Q77.16-16.38 76.02-14.55L76.02-14.55L76.02-14.55Q74.88-12.72 74.88-11.46L74.88-11.46L74.88-11.46Q74.88-6.42 75.12-4.44L75.12-4.44L75.12-4.44Q75.36-2.46 75.36-2.40L75.36-2.40L75.36-2.40Q75.36-0.66 72.99 0.30L72.99 0.30L72.99 0.30Q70.62 1.26 68.52 1.26L68.52 1.26L68.52 1.26Q67.74 1.26 67.74 0.30L67.74 0.30L67.74 0.06L67.74 0.06Q69.18-7.32 69.18-23.22L69.18-23.22L69.18-23.22Q69.18-28.44 68.94-32.04L68.94-32.04L68.82-33.24L68.82-33.24Q68.70-34.92 68.13-36.12L68.13-36.12L68.13-36.12Q67.56-37.32 67.02-37.68L67.02-37.68L66.54-37.98L66.54-37.98Q66.12-38.22 66.12-38.52L66.12-38.52L66.12-38.52Q66.12-39.48 69-40.68L69-40.68L69-40.68Q71.88-41.88 73.98-41.88L73.98-41.88L73.98-41.88Q74.94-41.82 75-41.16L75-41.16L75-41.16Q75.30-38.76 75.30-31.29L75.30-31.29L75.30-31.29Q75.30-23.82 74.94-19.38L74.94-19.38L74.94-19.38Q74.94-18.66 75.18-18.66L75.18-18.66L75.18-18.66Q75.42-18.66 75.93-19.35L75.93-19.35L75.93-19.35Q76.44-20.04 77.73-21.54L77.73-21.54L77.73-21.54Q79.02-23.04 81.21-25.02L81.21-25.02L81.21-25.02Q83.40-27 84.75-27L84.75-27L84.75-27Q86.10-27 87.42-26.34L87.42-26.34L87.42-26.34Q88.74-25.68 88.74-25.08L88.74-25.08L88.08-24.66L88.08-24.66Q84.66-23.40 80.58-19.44ZM112.56-26.70L112.56-26.70L112.56-26.70Q111.48-20.22 111.48-10.20L111.48-10.20L111.48-10.20Q111.48-2.82 112.08-0.48L112.08-0.48L112.32 0.30L112.32 0.30Q112.32 1.08 111 1.08L111 1.08L111 1.08Q106.38 1.08 105.72-1.50L105.72-1.50L105.72-1.50Q105.66-1.80 105.45-1.80L105.45-1.80L105.45-1.80Q105.24-1.80 105.06-1.56L105.06-1.56L105.06-1.56Q103.20 0.90 99.30 0.90L99.30 0.90L99.30 0.90Q97.14 0.90 94.80-0.18L94.80-0.18L94.80-0.18Q93.36-0.84 92.46-2.49L92.46-2.49L92.46-2.49Q91.56-4.14 91.56-6.54L91.56-6.54L92.46-19.68L92.46-19.68Q92.46-23.82 91.62-25.56L91.62-25.56L91.62-25.56Q91.32-26.22 91.32-26.40L91.32-26.40L91.32-26.40Q91.32-26.76 91.62-26.88L91.62-26.88L91.62-26.88Q92.58-27.18 94.08-27.18L94.08-27.18L94.08-27.18Q99.90-27.18 99.90-22.38L99.90-22.38L99.90-22.38Q99.90-20.88 98.67-15.54L98.67-15.54L98.67-15.54Q97.44-10.20 97.44-7.95L97.44-7.95L97.44-7.95Q97.44-5.70 98.43-4.50L98.43-4.50L98.43-4.50Q99.42-3.30 101.19-3.30L101.19-3.30L101.19-3.30Q102.96-3.30 103.98-4.56L103.98-4.56L103.98-4.56Q105-5.82 105.18-7.08L105.18-7.08L105.36-8.34L105.36-8.34Q105.60-10.44 105.60-15.72L105.60-15.72L105.60-15.72Q105.60-21 105.27-22.41L105.27-22.41L105.27-22.41Q104.94-23.82 104.94-24.18L104.94-24.18L104.94-24.18Q104.94-25.68 107.34-26.55L107.34-26.55L107.34-26.55Q109.74-27.42 111.66-27.42L111.66-27.42L111.66-27.42Q112.56-27.42 112.56-26.70ZM123.54-34.32L123.54-34.32L123.18-12.30L123.18-12.30Q123.18-1.98 123.84 0.06L123.84 0.06L123.84 0.06Q124.02 0.42 124.02 0.78L124.02 0.78L124.02 0.78Q124.02 1.50 122.28 1.50L122.28 1.50L122.28 1.50Q120.54 1.50 118.41 0.63L118.41 0.63L118.41 0.63Q116.28-0.24 116.28-1.62L116.28-1.62L116.28-1.62Q117.48-10.02 117.48-24.06L117.48-24.06L117.24-33.24L117.24-33.24Q117.12-34.92 116.55-36.12L116.55-36.12L116.55-36.12Q115.98-37.32 115.44-37.68L115.44-37.68L114.96-37.98L114.96-37.98Q114.54-38.22 114.54-38.52L114.54-38.52L114.54-38.52Q114.54-39.36 117.15-40.59L117.15-40.59L117.15-40.59Q119.76-41.82 122.22-41.82L122.22-41.82L122.22-41.82Q123.18-41.82 123.30-41.16L123.30-41.16L123.30-41.16Q123.54-39.60 123.54-34.32Z" fill="#999569"></path></g></g><style>text {
  font-size: 64px;
  font-family: Arial Black;
  dominant-baseline: central;
  text-anchor: middle;
}</style></svg>