<svg xmlns="http://www.w3.org/2000/svg" viewBox="0 13.600000381469727 128.5500030517578 36.60000228881836" data-asc="0.992" width="128.5500030517578" height="36.60000228881836"><defs/><g fill="#ffffff"><g transform="translate(0, 0)"><path d="M0 49.60L0 14.60L4.90 14.60L17.30 39.05L17.30 39.05L29.65 14.60L34.60 14.60L34.60 49.60L30.40 49.60L30.40 22.10L30.40 22.10L18.85 44.70L15.70 44.70L4.20 22.20L4.20 22.20L4.20 49.60L0 49.60ZM51 50.20Q48.10 50.20 45.93 49.05Q43.75 47.90 42.58 45.50Q41.40 43.10 41.40 39.50L41.40 24.40L45.60 24.40L45.60 39.05Q45.60 42.80 47.25 44.70Q48.90 46.60 51.90 46.60Q54 46.60 55.70 45.58Q57.40 44.55 58.38 42.63Q59.35 40.70 59.35 37.85L59.35 24.40L63.55 24.40L63.55 49.60L59.75 49.60L59.50 45.20L59.50 45.20Q58.35 47.55 56.10 48.88Q53.85 50.20 51 50.20ZM86 49.60L74 35.80L84.95 24.40L90.10 24.40L77.55 37.30L77.60 34.30L91.35 49.60L86 49.60M70.50 49.60L70.50 13.60L74.70 13.60L74.70 49.60L70.50 49.60ZM104.85 50.20Q101.95 50.20 99.78 49.05Q97.60 47.90 96.42 45.50Q95.25 43.10 95.25 39.50L95.25 24.40L99.45 24.40L99.45 39.05Q99.45 42.80 101.10 44.70Q102.75 46.60 105.75 46.60Q107.85 46.60 109.55 45.58Q111.25 44.55 112.23 42.63Q113.20 40.70 113.20 37.85L113.20 24.40L117.40 24.40L117.40 49.60L113.60 49.60L113.35 45.20L113.35 45.20Q112.20 47.55 109.95 48.88Q107.70 50.20 104.85 50.20ZM124.35 49.60L124.35 13.60L128.55 13.60L128.55 49.60L124.35 49.60Z"/></g></g></svg>